<svg class="animated" id="freepik_stories-asset-selection" xmlns="http://www.w3.org/2000/svg" xmlns:xlink="http://www.w3.org/1999/xlink" viewBox="0 0 500 500" version="1.1" xmlns:svgjs="http://svgjs.com/svgjs"><style>svg#freepik_stories-asset-selection:not(.animated) .animable {opacity: 0;}svg#freepik_stories-asset-selection.animated #freepik--background-complete--inject-27 {animation: 1s 1 forwards cubic-bezier(.36,-0.01,.5,1.38) zoomOut;animation-delay: 0s;}svg#freepik_stories-asset-selection.animated #freepik--Shadow--inject-27 {animation: 1s 1 forwards cubic-bezier(.36,-0.01,.5,1.38) lightSpeedLeft;animation-delay: 0s;}svg#freepik_stories-asset-selection.animated #freepik--Interface--inject-27 {animation: 1s 1 forwards cubic-bezier(.36,-0.01,.5,1.38) fadeIn;animation-delay: 0s;}svg#freepik_stories-asset-selection.animated #freepik--asset-1--inject-27 {animation: 1s 1 forwards cubic-bezier(.36,-0.01,.5,1.38) slideLeft;animation-delay: 0s;}svg#freepik_stories-asset-selection.animated #freepik--asset-2--inject-27 {animation: 1s 1 forwards cubic-bezier(.36,-0.01,.5,1.38) slideDown;animation-delay: 0s;}svg#freepik_stories-asset-selection.animated #freepik--Selection--inject-27 {animation: 1s 1 forwards cubic-bezier(.36,-0.01,.5,1.38) fadeIn;animation-delay: 0s;}svg#freepik_stories-asset-selection.animated #freepik--Character--inject-27 {animation: 1s 1 forwards cubic-bezier(.36,-0.01,.5,1.38) slideLeft;animation-delay: 0s;}            @keyframes zoomOut {                0% {                    opacity: 0;                    transform: scale(1.5);                }                100% {                    opacity: 1;                    transform: scale(1);                }            }                    @keyframes lightSpeedLeft {              from {                transform: translate3d(-50%, 0, 0) skewX(20deg);                opacity: 0;              }              60% {                transform: skewX(-10deg);                opacity: 1;              }              80% {                transform: skewX(2deg);              }              to {                opacity: 1;                transform: translate3d(0, 0, 0);              }            }                    @keyframes fadeIn {                0% {                    opacity: 0;                }                100% {                    opacity: 1;                }            }                    @keyframes slideLeft {                0% {                    opacity: 0;                    transform: translateX(-30px);                }                100% {                    opacity: 1;                    transform: translateX(0);                }            }                    @keyframes slideDown {                0% {                    opacity: 0;                    transform: translateY(-30px);                }                100% {                    opacity: 1;                    transform: translateY(0);                }            }        </style><g id="freepik--background-complete--inject-27" style="transform-origin: 250px 228.22999572753906px;" class="animable"><rect y="382.4" width="500" height="0.25" style="fill: rgb(235, 235, 235); transform-origin: 250px 382.525px;" id="elty1j7avi0ai" class="animable"></rect><rect x="416.78" y="398.49" width="33.12" height="0.25" style="fill: rgb(235, 235, 235); transform-origin: 433.34px 398.615px;" id="eldzrv8o8l189" class="animable"></rect><rect x="322.53" y="401.21" width="8.69" height="0.25" style="fill: rgb(235, 235, 235); transform-origin: 326.875px 401.335px;" id="elkercxaq1j3m" class="animable"></rect><rect x="396.59" y="389.21" width="19.19" height="0.25" style="fill: rgb(235, 235, 235); transform-origin: 406.185px 389.335px;" id="eluyzrv93m7ur" class="animable"></rect><rect x="52.46" y="390.89" width="43.19" height="0.25" style="fill: rgb(235, 235, 235); transform-origin: 74.055px 391.015px;" id="elkw55qrg4iyn" class="animable"></rect><rect x="104.56" y="390.89" width="6.33" height="0.25" style="fill: rgb(235, 235, 235); transform-origin: 107.72500000000001px 391.015px;" id="elsnks3pwwhy" class="animable"></rect><rect x="131.47" y="395.11" width="93.68" height="0.25" style="fill: rgb(235, 235, 235); transform-origin: 178.31px 395.235px;" id="el34qj8uy238j" class="animable"></rect><path d="M237,337.8H43.91a5.71,5.71,0,0,1-5.7-5.71V60.66A5.71,5.71,0,0,1,43.91,55H237a5.71,5.71,0,0,1,5.71,5.71V332.09A5.71,5.71,0,0,1,237,337.8ZM43.91,55.2a5.46,5.46,0,0,0-5.45,5.46V332.09a5.46,5.46,0,0,0,5.45,5.46H237a5.47,5.47,0,0,0,5.46-5.46V60.66A5.47,5.47,0,0,0,237,55.2Z" style="fill: rgb(235, 235, 235); transform-origin: 140.45999908447266px 196.40000915527344px;" id="el5ux572xgeu" class="animable"></path><path d="M453.31,337.8H260.21a5.72,5.72,0,0,1-5.71-5.71V60.66A5.72,5.72,0,0,1,260.21,55h193.1A5.71,5.71,0,0,1,459,60.66V332.09A5.71,5.71,0,0,1,453.31,337.8ZM260.21,55.2a5.47,5.47,0,0,0-5.46,5.46V332.09a5.47,5.47,0,0,0,5.46,5.46h193.1a5.47,5.47,0,0,0,5.46-5.46V60.66a5.47,5.47,0,0,0-5.46-5.46Z" style="fill: rgb(235, 235, 235); transform-origin: 356.75px 196.39999389648438px;" id="el44f8byoovdj" class="animable"></path><path d="M85.38,345.83c0-.4,1.35-39.68,7.74-45.89,6.21-6,13.34-.23,13.64,0l.64-.77c-.08-.06-8.13-6.63-15,0-6.68,6.49-8,44.94-8,46.57Z" style="fill: rgb(224, 224, 224); transform-origin: 95.89999389648438px 321.0199718475342px;" id="elfn9qhi2snhs" class="animable"></path><path d="M84.84,353.54c0-.46,4.36-47.15-12.69-66.72l-.75.66c16.77,19.24,12.49,65.5,12.44,66Z" style="fill: rgb(224, 224, 224); transform-origin: 78.36960458755493px 320.1800079345703px;" id="ele4yfu5qxhp6" class="animable"></path><path d="M85.47,348.61l1-.07c0-.53-3.33-53.08,9.17-64.58l-.67-.74C82.1,295.05,85.32,346.42,85.47,348.61Z" style="fill: rgb(224, 224, 224); transform-origin: 90.3226408958435px 315.91497802734375px;" id="elnlvdzu52yx" class="animable"></path><path d="M83.84,348.58h1c0-1.45-.41-35.49-10.09-41a6.86,6.86,0,0,0-6.25-.61c-5.85,2.42-8.75,12.83-8.87,13.27l1,.27c0-.11,2.89-10.38,8.28-12.61a5.91,5.91,0,0,1,5.38.55C83.43,313.66,83.84,348.23,83.84,348.58Z" style="fill: rgb(224, 224, 224); transform-origin: 72.23499870300293px 327.5326862335205px;" id="eluwhw4vy18f" class="animable"></path><path d="M87.6,348.6l1-.06c0-.26-1.46-26.9,5.73-36.28C96.07,310,98,308.9,100,309c4.71.33,8.66,7.22,8.7,7.29l.87-.49c-.17-.31-4.25-7.43-9.5-7.8-2.34-.17-4.53,1-6.49,3.61C86.12,321.33,87.54,347.49,87.6,348.6Z" style="fill: rgb(224, 224, 224); transform-origin: 98.51217365264893px 328.2919502258301px;" id="elt6cmgklz1ud" class="animable"></path><path d="M86,352.22c.19-2.58,4.7-63.4-3.23-74.11l-.8.59c7.7,10.42,3.08,72.82,3,73.45Z" style="fill: rgb(224, 224, 224); transform-origin: 84.70899558067322px 315.1649932861328px;" id="elsl7mdc2z9wc" class="animable"></path><path d="M66.34,313.09s4.76,1.75,3.34,5.89-16.44,10.94-16.44,10.94-6.3-5.77-.52-15.15S66.21,310.13,66.34,313.09Z" style="fill: rgb(235, 235, 235); transform-origin: 60.11190986633301px 319.57739448547363px;" id="elc094ztp4hek" class="animable"></path><path d="M87,305.21S82,305,81.66,309.36s11,16.43,11,16.43,8-2.9,6.31-13.79S88.27,302.53,87,305.21Z" style="fill: rgb(235, 235, 235); transform-origin: 90.42849159240723px 314.5473575592041px;" id="el9686hxljtib" class="animable"></path><path d="M91.29,284.33s-3.37-.36-3.1-2.42,13.12-7.34,20.7,1.21c0,0-4.85,8.34-11.87,8.45S91.29,284.33,91.29,284.33Z" style="fill: rgb(235, 235, 235); transform-origin: 98.53230476379395px 284.9866895675659px;" id="elo7cuetjqlcj" class="animable"></path><path d="M85,279.34s3.06,1.47,3.92-.41S81.67,265.75,70.71,269c0,0-.29,9.65,5.61,13.45S85,279.34,85,279.34Z" style="fill: rgb(235, 235, 235); transform-origin: 79.8450984954834px 276.00368213653564px;" id="elgufdco9x96" class="animable"></path><path d="M101,311.42s-2.33-1.88.19-2.79,14.84-.66,15,11.56c0,0-14.36,2.38-16.14-2.27S101,311.42,101,311.42Z" style="fill: rgb(235, 235, 235); transform-origin: 107.8186845779419px 314.55430936813354px;" id="elf70gj4l4zp" class="animable"></path><path d="M71.69,284s2.33-1.88-.18-2.8-14.85-.65-15,11.56c0,0,14.37,2.39,16.14-2.26S71.69,284,71.69,284Z" style="fill: rgb(235, 235, 235); transform-origin: 64.8784704208374px 287.12543296813965px;" id="elo62r5uu7j3" class="animable"></path><path d="M79.28,293.86s.21-2.28-1.64-1.39-8.27,7.84-1.61,14.42c0,0,9-6.65,7.36-10.11S79.28,293.86,79.28,293.86Z" style="fill: rgb(235, 235, 235); transform-origin: 78.33248853683472px 299.57689905166626px;" id="elvmw47oroj7" class="animable"></path><path d="M103.07,297.12s-1.4-1.82.64-2.05,11.18,2.21,9.05,11.34c0,0-11.13-.84-11.61-4.63S103.07,297.12,103.07,297.12Z" style="fill: rgb(235, 235, 235); transform-origin: 107.0830454826355px 300.7327241897583px;" id="eltuq2wqwcha" class="animable"></path><polygon points="65.45 382.44 103.65 382.44 107.77 340.62 61.33 340.62 65.45 382.44" style="fill: rgb(240, 240, 240); transform-origin: 84.54999923706055px 361.5299987792969px;" id="ele59iz112u8n" class="animable"></polygon><g id="elcozcx9arn0j"><rect x="59.29" y="336" width="50.52" height="9.23" style="fill: rgb(230, 230, 230); transform-origin: 84.55px 340.615px; transform: rotate(180deg);" class="animable" id="eltx6s8oyqlsi"></rect></g><path d="M414.22,345.83c0-.4-1.34-39.68-7.73-45.89-6.21-6-13.35-.23-13.64,0l-.65-.77c.09-.06,8.13-6.63,15,0,6.68,6.49,8,44.94,8,46.57Z" style="fill: rgb(224, 224, 224); transform-origin: 403.6999816894531px 321.0199718475342px;" id="elvwklskvkrqg" class="animable"></path><path d="M414.77,353.54c0-.46-4.36-47.15,12.69-66.72l.75.66c-16.77,19.24-12.49,65.5-12.44,66Z" style="fill: rgb(224, 224, 224); transform-origin: 421.24039125442505px 320.1800079345703px;" id="elcr1yje4xcfm" class="animable"></path><path d="M414.14,348.61l-1-.07c0-.53,3.34-53.08-9.17-64.58l.68-.74C417.51,295.05,414.29,346.42,414.14,348.61Z" style="fill: rgb(224, 224, 224); transform-origin: 409.28756952285767px 315.91497802734375px;" id="ela0awlc7ambg" class="animable"></path><path d="M415.77,348.58h-1c0-1.45.41-35.49,10.08-41a6.88,6.88,0,0,1,6.26-.61c5.85,2.42,8.75,12.83,8.87,13.27l-1,.27c0-.11-2.89-10.38-8.28-12.61a5.91,5.91,0,0,0-5.38.55C416.17,313.66,415.77,348.23,415.77,348.58Z" style="fill: rgb(224, 224, 224); transform-origin: 427.37498474121094px 327.53267097473145px;" id="eljz3aevodns" class="animable"></path><path d="M412,348.6l-1-.06c0-.26,1.46-26.9-5.73-36.28-1.74-2.28-3.64-3.36-5.63-3.22-4.71.33-8.66,7.22-8.7,7.29l-.87-.49c.17-.31,4.25-7.43,9.5-7.8,2.34-.17,4.53,1,6.49,3.61C413.48,321.33,412.07,347.49,412,348.6Z" style="fill: rgb(224, 224, 224); transform-origin: 401.1104793548584px 328.311954498291px;" id="elnvirh3fhtj" class="animable"></path><path d="M413.58,352.22c-.2-2.58-4.7-63.4,3.23-74.11l.8.59c-7.71,10.42-3.08,72.82-3,73.45Z" style="fill: rgb(224, 224, 224); transform-origin: 414.8692407608032px 315.1649932861328px;" id="elmb6ip4lw2oc" class="animable"></path><path d="M433.27,313.09s-4.76,1.75-3.34,5.89,16.44,10.94,16.44,10.94,6.3-5.77.51-15.15S433.39,310.13,433.27,313.09Z" style="fill: rgb(235, 235, 235); transform-origin: 439.49645137786865px 319.57739448547363px;" id="ele8zo2b7t3uh" class="animable"></path><path d="M412.6,305.21s5.06-.21,5.35,4.15-11,16.43-11,16.43-8-2.9-6.3-13.79S411.34,302.53,412.6,305.21Z" style="fill: rgb(235, 235, 235); transform-origin: 409.18421268463135px 314.5473575592041px;" id="eltmsxwzeh7up" class="animable"></path><path d="M408.32,284.33s3.37-.36,3.1-2.42-13.12-7.34-20.7,1.21c0,0,4.85,8.34,11.87,8.45S408.32,284.33,408.32,284.33Z" style="fill: rgb(235, 235, 235); transform-origin: 401.0777063369751px 284.9866895675659px;" id="eld7i0ixr9jw8" class="animable"></path><path d="M414.6,279.34s-3.05,1.47-3.91-.41,7.25-13.18,18.21-9.93c0,0,.29,9.65-5.61,13.45S414.6,279.34,414.6,279.34Z" style="fill: rgb(235, 235, 235); transform-origin: 419.76489543914795px 276.00368213653564px;" id="elxv7evstpv8f" class="animable"></path><path d="M398.63,311.42s2.33-1.88-.19-2.79-14.85-.66-15,11.56c0,0,14.36,2.38,16.14-2.27S398.63,311.42,398.63,311.42Z" style="fill: rgb(235, 235, 235); transform-origin: 391.81133460998535px 314.55430936813354px;" id="elqhmhoi39gia" class="animable"></path><path d="M427.92,284s-2.33-1.88.18-2.8,14.85-.65,15,11.56c0,0-14.37,2.39-16.14-2.26S427.92,284,427.92,284Z" style="fill: rgb(235, 235, 235); transform-origin: 434.73155784606934px 287.12543296813965px;" id="el01unu54wyhy7" class="animable"></path><path d="M420.32,293.86s-.2-2.28,1.64-1.39,8.28,7.84,1.62,14.42c0,0-9-6.65-7.36-10.11S420.32,293.86,420.32,293.86Z" style="fill: rgb(235, 235, 235); transform-origin: 421.27520656585693px 299.57689905166626px;" id="el9uoc8yrr9qd" class="animable"></path><path d="M396.54,297.12s1.4-1.82-.64-2.05-11.18,2.21-9,11.34c0,0,11.13-.84,11.61-4.63S396.54,297.12,396.54,297.12Z" style="fill: rgb(235, 235, 235); transform-origin: 392.5693383216858px 300.7327241897583px;" id="el6p01tf85moo" class="animable"></path><polygon points="434.15 382.44 395.96 382.44 391.84 340.62 438.28 340.62 434.15 382.44" style="fill: rgb(240, 240, 240); transform-origin: 415.05999755859375px 361.5299987792969px;" id="el3xnw9ryqhkw" class="animable"></polygon><rect x="389.8" y="336" width="50.52" height="9.23" style="fill: rgb(230, 230, 230); transform-origin: 415.06px 340.615px;" id="elievvfcv9qz" class="animable"></rect><rect x="136.02" y="127.77" width="101.72" height="204.54" style="fill: rgb(250, 250, 250); transform-origin: 186.88px 230.04px;" id="eldzeqc4kl2v9" class="animable"></rect><rect x="133.67" y="124.99" width="106.42" height="10.04" style="fill: rgb(240, 240, 240); transform-origin: 186.88px 130.01px;" id="elmfqhs6i3yg" class="animable"></rect><rect x="133.67" y="136.14" width="106.42" height="5.02" style="fill: rgb(240, 240, 240); transform-origin: 186.88px 138.64999999999998px;" id="elnkiygg8ws5q" class="animable"></rect><rect x="133.67" y="143.59" width="106.42" height="5.02" style="fill: rgb(240, 240, 240); transform-origin: 186.88px 146.1px;" id="eli8eq5iznmef" class="animable"></rect><rect x="133.67" y="151.04" width="106.42" height="5.02" style="fill: rgb(240, 240, 240); transform-origin: 186.88px 153.54999999999998px;" id="el4msnmwde11o" class="animable"></rect><rect x="133.67" y="158.49" width="106.42" height="5.02" style="fill: rgb(240, 240, 240); transform-origin: 186.88px 161px;" id="el25rktwh8tyk" class="animable"></rect><rect x="133.67" y="165.93" width="106.42" height="5.02" style="fill: rgb(240, 240, 240); transform-origin: 186.88px 168.44px;" id="el373nch5c2me" class="animable"></rect><rect x="133.67" y="173.38" width="106.42" height="5.02" style="fill: rgb(240, 240, 240); transform-origin: 186.88px 175.89px;" id="elv7faqeoxyse" class="animable"></rect><rect x="133.67" y="180.83" width="106.42" height="5.02" style="fill: rgb(240, 240, 240); transform-origin: 186.88px 183.34px;" id="elacplqy5a0nl" class="animable"></rect><rect x="133.67" y="188.28" width="106.42" height="5.02" style="fill: rgb(240, 240, 240); transform-origin: 186.88px 190.79px;" id="elb9bxp030vhk" class="animable"></rect><rect x="133.67" y="195.73" width="106.42" height="5.02" style="fill: rgb(240, 240, 240); transform-origin: 186.88px 198.23999999999998px;" id="elmut05yky78a" class="animable"></rect><rect x="133.67" y="203.18" width="106.42" height="5.02" style="fill: rgb(240, 240, 240); transform-origin: 186.88px 205.69px;" id="ele77la6mvuge" class="animable"></rect><rect x="133.67" y="210.62" width="106.42" height="5.02" style="fill: rgb(240, 240, 240); transform-origin: 186.88px 213.13px;" id="elrvsfcny6f3s" class="animable"></rect><rect x="133.67" y="218.07" width="106.42" height="5.02" style="fill: rgb(240, 240, 240); transform-origin: 186.88px 220.57999999999998px;" id="elq4p8zz5howr" class="animable"></rect><rect x="133.67" y="225.52" width="106.42" height="5.02" style="fill: rgb(240, 240, 240); transform-origin: 186.88px 228.03px;" id="eldpam8unjy4g" class="animable"></rect><rect x="133.67" y="232.97" width="106.42" height="5.02" style="fill: rgb(240, 240, 240); transform-origin: 186.88px 235.48px;" id="elwdx3xoqz1ok" class="animable"></rect><rect x="133.67" y="240.42" width="106.42" height="5.02" style="fill: rgb(240, 240, 240); transform-origin: 186.88px 242.92999999999998px;" id="eln0jozkq9i0c" class="animable"></rect><rect x="133.67" y="247.86" width="106.42" height="5.02" style="fill: rgb(240, 240, 240); transform-origin: 186.88px 250.37px;" id="elyammhbxs1y" class="animable"></rect><rect x="133.67" y="255.31" width="106.42" height="5.02" style="fill: rgb(240, 240, 240); transform-origin: 186.88px 257.82px;" id="ely4lurkedch" class="animable"></rect><rect x="133.67" y="262.76" width="106.42" height="5.02" style="fill: rgb(240, 240, 240); transform-origin: 186.88px 265.27px;" id="elcg5ahdff7e9" class="animable"></rect><rect x="133.67" y="270.21" width="106.42" height="5.02" style="fill: rgb(240, 240, 240); transform-origin: 186.88px 272.71999999999997px;" id="eldl1gwfq82pp" class="animable"></rect><rect x="133.67" y="277.66" width="106.42" height="5.02" style="fill: rgb(240, 240, 240); transform-origin: 186.88px 280.17px;" id="elz696k8865a" class="animable"></rect><rect x="133.67" y="285.11" width="106.42" height="5.02" style="fill: rgb(240, 240, 240); transform-origin: 186.88px 287.62px;" id="eldhs52a8lnod" class="animable"></rect><rect x="133.67" y="292.55" width="106.42" height="5.02" style="fill: rgb(240, 240, 240); transform-origin: 186.88px 295.06px;" id="elyop4gyjif4" class="animable"></rect><rect x="133.67" y="300" width="106.42" height="5.02" style="fill: rgb(240, 240, 240); transform-origin: 186.88px 302.51px;" id="elklmrhixcav" class="animable"></rect><rect x="133.67" y="307.45" width="106.42" height="5.02" style="fill: rgb(240, 240, 240); transform-origin: 186.88px 309.96px;" id="eljdssm6rx4me" class="animable"></rect><rect x="133.67" y="314.9" width="106.42" height="5.02" style="fill: rgb(240, 240, 240); transform-origin: 186.88px 317.40999999999997px;" id="elmnxuxmkmr3" class="animable"></rect><rect x="133.67" y="322.35" width="106.42" height="5.02" style="fill: rgb(240, 240, 240); transform-origin: 186.88px 324.86px;" id="el8916cu35pbe" class="animable"></rect><rect x="133.67" y="329.79" width="106.42" height="5.02" style="fill: rgb(240, 240, 240); transform-origin: 186.88px 332.3px;" id="el2hq93belwqs" class="animable"></rect><rect x="262.26" y="127.77" width="101.72" height="204.54" style="fill: rgb(250, 250, 250); transform-origin: 313.12px 230.04px;" id="elisoiorsscz" class="animable"></rect><rect x="259.91" y="124.99" width="106.42" height="10.04" style="fill: rgb(240, 240, 240); transform-origin: 313.12px 130.01px;" id="elsqw25789b1b" class="animable"></rect><rect x="259.91" y="136.14" width="106.42" height="0.92" style="fill: rgb(240, 240, 240); transform-origin: 313.12px 136.6px;" id="el40uizkr8vtb" class="animable"></rect><rect x="259.91" y="138.24" width="106.42" height="0.92" style="fill: rgb(240, 240, 240); transform-origin: 313.12px 138.70000000000002px;" id="el63qq8998p2p" class="animable"></rect><rect x="259.91" y="140.33" width="106.42" height="0.92" style="fill: rgb(240, 240, 240); transform-origin: 313.12px 140.79000000000002px;" id="elm2sn9ulbxlk" class="animable"></rect><rect x="259.91" y="142.43" width="106.42" height="0.92" style="fill: rgb(240, 240, 240); transform-origin: 313.12px 142.89000000000001px;" id="elkkhtrwqntif" class="animable"></rect><rect x="259.91" y="144.52" width="106.42" height="0.92" style="fill: rgb(240, 240, 240); transform-origin: 313.12px 144.98000000000002px;" id="eld4j7clmnmx9" class="animable"></rect><rect x="259.91" y="146.62" width="106.42" height="0.92" style="fill: rgb(240, 240, 240); transform-origin: 313.12px 147.08px;" id="elwadlws1cs5j" class="animable"></rect><rect x="259.91" y="148.71" width="106.42" height="0.92" style="fill: rgb(240, 240, 240); transform-origin: 313.12px 149.17000000000002px;" id="elbqegpym27bu" class="animable"></rect><rect x="259.91" y="150.81" width="106.42" height="0.92" style="fill: rgb(240, 240, 240); transform-origin: 313.12px 151.27px;" id="el9baw57v0bbp" class="animable"></rect><rect x="259.91" y="152.91" width="106.42" height="0.92" style="fill: rgb(240, 240, 240); transform-origin: 313.12px 153.37px;" id="el8jlxazkz8r9" class="animable"></rect><rect x="259.91" y="155" width="106.42" height="0.92" style="fill: rgb(240, 240, 240); transform-origin: 313.12px 155.46px;" id="elum190o8jdnm" class="animable"></rect><rect x="259.91" y="157.1" width="106.42" height="0.92" style="fill: rgb(240, 240, 240); transform-origin: 313.12px 157.56px;" id="elabo05ui2z5j" class="animable"></rect><rect x="259.91" y="159.19" width="106.42" height="0.92" style="fill: rgb(240, 240, 240); transform-origin: 313.12px 159.65px;" id="elveoxqyibgxl" class="animable"></rect><rect x="259.91" y="161.29" width="106.42" height="0.92" style="fill: rgb(240, 240, 240); transform-origin: 313.12px 161.75px;" id="el5hu0i6p5oxb" class="animable"></rect><rect x="259.91" y="163.38" width="106.42" height="0.92" style="fill: rgb(240, 240, 240); transform-origin: 313.12px 163.84px;" id="el6g2ys4rottg" class="animable"></rect><rect x="259.91" y="165.48" width="106.42" height="0.92" style="fill: rgb(240, 240, 240); transform-origin: 313.12px 165.94px;" id="eljtkk8330ld" class="animable"></rect><rect x="259.91" y="167.58" width="106.42" height="0.92" style="fill: rgb(240, 240, 240); transform-origin: 313.12px 168.04000000000002px;" id="el3csr6dxi23e" class="animable"></rect><rect x="259.91" y="169.67" width="106.42" height="0.92" style="fill: rgb(240, 240, 240); transform-origin: 313.12px 170.13px;" id="el8pip77kafv4" class="animable"></rect><rect x="259.91" y="171.77" width="106.42" height="0.92" style="fill: rgb(240, 240, 240); transform-origin: 313.12px 172.23000000000002px;" id="el10hf807gdgwa" class="animable"></rect><g id="elos7bwvq3d9"><circle cx="250" cy="96.28" r="15.17" style="fill: rgb(240, 240, 240); transform-origin: 250px 96.28px; transform: rotate(-80.78deg);" class="animable" id="el9jfeh7dil69"></circle></g><g id="el9eb1n8pqi1w"><circle cx="250" cy="96.28" r="12.9" style="fill: rgb(250, 250, 250); transform-origin: 250px 96.28px; transform: rotate(-80.78deg);" class="animable" id="elxbd3l08thx"></circle></g><polyline points="249.39 87.43 249.39 96.45 243.42 93.07" style="fill: rgb(240, 240, 240); stroke: rgb(224, 224, 224); stroke-linecap: round; stroke-linejoin: round; stroke-width: 2px; transform-origin: 246.40499877929688px 91.93999862670898px;" id="eltzp6asb1z1s" class="animable"></polyline></g><g id="freepik--Shadow--inject-27" style="transform-origin: 250px 416.23998260498047px;" class="animable"><ellipse id="freepik--path--inject-27" cx="250" cy="416.24" rx="193.89" ry="11.32" style="fill: rgb(245, 245, 245); transform-origin: 250px 416.24px;" class="animable"></ellipse></g><g id="freepik--Interface--inject-27" style="transform-origin: 264.4300003051758px 225.9149932861328px;" class="animable"><g id="el1sm5es321wj"><rect x="252.11" y="153.76" width="190.02" height="206.76" rx="3.65" style="fill: #53B753; opacity: 0.5; transform-origin: 347.12px 257.14px;" class="animable" id="el2bbtshrz7cy"></rect></g><rect x="246.11" y="149.76" width="190.02" height="206.76" rx="3.65" style="fill: #53B753; transform-origin: 341.12px 253.14px;" id="eluy0ufxkzec" class="animable"></rect><g id="eljguw9bxogl"><rect x="246.11" y="149.76" width="190.02" height="206.76" rx="3.65" style="fill: rgb(255, 255, 255); opacity: 0.8; isolation: isolate; transform-origin: 341.12px 253.14px;" class="animable" id="elyzcx2o68rea"></rect></g><g id="elublo6jkkp3q"><rect x="92.73" y="148.87" width="100.02" height="176.76" rx="3.65" style="fill: #53B753; opacity: 0.5; transform-origin: 142.74px 237.25px;" class="animable" id="elurzt5jqt7om"></rect></g><rect x="86.73" y="142.87" width="100.02" height="176.76" rx="3.65" style="fill: #53B753; transform-origin: 136.74px 231.25px;" id="elmhtmllikkef" class="animable"></rect><g id="elk09uab6ib69"><rect x="86.73" y="142.87" width="100.02" height="176.76" rx="3.65" style="fill: rgb(255, 255, 255); opacity: 0.8; isolation: isolate; transform-origin: 136.74px 231.25px;" class="animable" id="elpmvfkaolaoo"></rect></g><rect x="86.73" y="91.31" width="350.2" height="23.26" rx="3.85" style="fill: #53B753; transform-origin: 261.83px 102.94px;" id="ellted23idorb" class="animable"></rect><g id="elrmm7sdvfod"><path d="M401.39,102.94a4.49,4.49,0,1,1-4.49-4.54A4.51,4.51,0,0,1,401.39,102.94Z" style="fill: rgb(255, 255, 255); opacity: 0.6000000000000001; isolation: isolate; transform-origin: 396.90019702911377px 102.89000511169434px;" class="animable" id="elyaswg4axbud"></path></g><g id="el4ov6jx2nz67"><path d="M415.43,102.94a4.49,4.49,0,1,1-4.49-4.54A4.51,4.51,0,0,1,415.43,102.94Z" style="fill: rgb(255, 255, 255); opacity: 0.6000000000000001; isolation: isolate; transform-origin: 410.9401903152466px 102.89000511169434px;" class="animable" id="elc7y8nlol8h"></path></g><g id="el06aqye7cd7ax"><path d="M429.46,102.94A4.49,4.49,0,1,1,425,98.4,4.51,4.51,0,0,1,429.46,102.94Z" style="fill: rgb(255, 255, 255); opacity: 0.6000000000000001; isolation: isolate; transform-origin: 424.97015953063965px 102.88990068435669px;" class="animable" id="elvsj0d66end"></path></g><g id="elc6iou8sfmoc"><rect x="94.89" y="97.1" width="11.54" height="11.67" style="fill: rgb(255, 255, 255); opacity: 0.6000000000000001; isolation: isolate; transform-origin: 100.66px 102.93499999999999px;" class="animable" id="el6qj0iwtz5ar"></rect></g></g><g id="freepik--asset-1--inject-27" style="transform-origin: 118.94500350952148px 220.38500213623047px;" class="animable"><rect x="72.67" y="171.04" width="107.84" height="20.63" style="fill: #53B753; transform-origin: 126.59px 181.355px;" id="el2lfv7lcpl6t" class="animable"></rect><g id="elie42l2016s8"><rect x="72.67" y="171.04" width="107.84" height="20.63" style="opacity: 0.2; isolation: isolate; transform-origin: 126.59px 181.355px;" class="animable" id="el3f5uh4f8teq"></rect></g><rect x="79.58" y="177.05" width="8.61" height="8.61" style="fill: rgb(255, 255, 255); transform-origin: 83.88499999999999px 181.35500000000002px;" id="elfdge52ycg29" class="animable"></rect><polyline points="81.46 181.38 83.07 183.44 86.31 179.27" style="fill: none; stroke: #53B753; stroke-linecap: round; stroke-linejoin: round; stroke-width: 1.5px; transform-origin: 83.8849983215332px 181.3550033569336px;" id="elmpn4rp2mk9d" class="animable"></polyline><path d="M174.83,186.19h-8.66v-5.86h8.66ZM170.5,176a3.68,3.68,0,0,0-3.68,3.67h1a2.68,2.68,0,0,1,5.35,0h1A3.68,3.68,0,0,0,170.5,176Z" style="fill: #53B753; transform-origin: 170.5px 181.09500122070312px;" id="elhnvgd6i821c" class="animable"></path><rect x="56.82" y="209.18" width="107.84" height="20.63" style="fill: #53B753; transform-origin: 110.74000000000001px 219.495px;" id="elxc1qkh3dkir" class="animable"></rect><g id="elzfn7q2jrxln"><rect x="56.82" y="209.18" width="107.84" height="20.63" style="fill: rgb(255, 255, 255); opacity: 0.4; isolation: isolate; transform-origin: 110.74000000000001px 219.495px;" class="animable" id="elqi500r9q15"></rect></g><rect x="63.73" y="215.18" width="8.61" height="8.61" style="fill: rgb(255, 255, 255); transform-origin: 68.035px 219.485px;" id="el6ophcy3aumo" class="animable"></rect><rect x="150.32" y="218.47" width="8.66" height="5.85" style="fill: rgb(255, 255, 255); transform-origin: 154.65px 221.395px;" id="el7ueeogu1lzn" class="animable"></rect><path d="M158.32,217.83h-1a2.67,2.67,0,1,0-5.34,0h-1a3.67,3.67,0,1,1,7.34,0Z" style="fill: rgb(255, 255, 255); transform-origin: 154.65002369880676px 215.9914321899414px;" id="ell3e51lcxtu" class="animable"></path><rect x="73.23" y="249.1" width="107.84" height="20.63" style="fill: #53B753; transform-origin: 127.15px 259.415px;" id="el22j78qgez8m" class="animable"></rect><g id="eldz0aruwxmi5"><rect x="73.23" y="249.1" width="107.84" height="20.63" style="fill: rgb(255, 255, 255); opacity: 0.4; isolation: isolate; transform-origin: 127.15px 259.415px;" class="animable" id="elaeh53tntp44"></rect></g><rect x="80.14" y="255.11" width="8.61" height="8.61" style="fill: rgb(255, 255, 255); transform-origin: 84.445px 259.415px;" id="elsr84axbmfli" class="animable"></rect><polyline points="82.02 259.43 83.63 261.5 86.87 257.33" style="fill: none; stroke: #53B753; stroke-linecap: round; stroke-linejoin: round; stroke-width: 1.5px; transform-origin: 84.44499969482422px 259.4149932861328px;" id="elsagxq1anbam" class="animable"></polyline><g id="el838dscwyinw"><g style="opacity: 0.6000000000000001; isolation: isolate; transform-origin: 171.05999755859375px 259.06414794921875px;" class="animable" id="ely6ngkotz5yc"><rect x="166.73" y="258.39" width="8.66" height="5.85" style="fill: rgb(255, 255, 255); transform-origin: 171.06px 261.315px;" id="el8obkibsicft" class="animable"></rect><path d="M174.73,257.76h-1a2.68,2.68,0,1,0-5.35,0h-1a3.68,3.68,0,1,1,7.35,0Z" style="fill: rgb(255, 255, 255); transform-origin: 171.05498886108398px 255.82414627075195px;" id="elfq9l5pwh33i" class="animable"></path></g></g></g><g id="freepik--asset-2--inject-27" style="transform-origin: 349.3699951171875px 297.60064697265625px;" class="animable"><rect x="326.97" y="226.62" width="84.21" height="54.77" style="fill: #53B753; transform-origin: 369.07500000000005px 254.005px;" id="elu28bx8xnmt" class="animable"></rect><g id="el4b1yshlpu8l"><rect x="326.97" y="226.62" width="84.21" height="54.77" style="fill: rgb(255, 255, 255); opacity: 0.5; isolation: isolate; transform-origin: 369.07500000000005px 254.005px;" class="animable" id="el9o11a0mhr4j"></rect></g><rect x="330.05" y="236.88" width="78.05" height="41.76" style="fill: #53B753; transform-origin: 369.075px 257.76px;" id="eld1dcg9jvuj5" class="animable"></rect><rect x="336.41" y="243.12" width="57.73" height="1.8" style="fill: rgb(255, 255, 255); transform-origin: 365.27500000000003px 244.02px;" id="el2t5o0uvirua" class="animable"></rect><rect x="336.41" y="248.63" width="27.7" height="1.8" style="fill: rgb(255, 255, 255); transform-origin: 350.26000000000005px 249.53px;" id="elkuglif1pjgs" class="animable"></rect><rect x="336.41" y="254.13" width="34.89" height="1.8" style="fill: rgb(255, 255, 255); transform-origin: 353.855px 255.03px;" id="eld41jr9x6iyu" class="animable"></rect><rect x="336.41" y="259.63" width="12.3" height="1.8" style="fill: rgb(255, 255, 255); transform-origin: 342.56px 260.53px;" id="elzgw9xpaeuz" class="animable"></rect><rect x="336.41" y="265.13" width="7.96" height="1.8" style="fill: rgb(255, 255, 255); transform-origin: 340.39000000000004px 266.03px;" id="elw5w0mogj1tr" class="animable"></rect><path d="M413.59,334.62v30.54a3.44,3.44,0,0,1-2.94,3.41,3,3,0,0,1-.52,0H370.9a3.45,3.45,0,0,1-3.45-3.45V334.62a3.35,3.35,0,0,1,.35-1.51,3.45,3.45,0,0,1,3.1-1.95h15.38a3.54,3.54,0,0,0,2-.66,3.5,3.5,0,0,0,1.26-1.72,3.46,3.46,0,0,1,3.29-2.39H401a3.45,3.45,0,0,1,3.29,2.39,3.46,3.46,0,0,0,3.29,2.38h2.51A3.46,3.46,0,0,1,413.59,334.62Z" style="fill: #53B753; transform-origin: 390.51995849609375px 347.4856262207031px;" id="el46ut8std9ir" class="animable"></path><g id="elo9wqun6jgfk"><path d="M410.65,336.06v32.51l0,0H370.9a3.45,3.45,0,0,1-3.45-3.45V334.62a3.35,3.35,0,0,1,.35-1.51h39.9A3,3,0,0,1,410.65,336.06Z" style="fill: rgb(255, 255, 255); opacity: 0.30000000000000004; isolation: isolate; transform-origin: 389.04995346069336px 350.8399963378906px;" class="animable" id="elsuebdzdq37"></path></g><polygon points="319.97 289.67 319.97 327.86 312.51 335.32 285.15 335.32 285.15 289.67 319.97 289.67" style="fill: #53B753; transform-origin: 302.55999755859375px 312.49501037597656px;" id="elg9zc3l1yif" class="animable"></polygon><g id="elm7swmbl2tzb"><polygon points="319.97 289.67 319.97 327.86 312.51 335.32 285.15 335.32 285.15 289.67 319.97 289.67" style="fill: rgb(255, 255, 255); opacity: 0.4; isolation: isolate; transform-origin: 302.55999755859375px 312.49501037597656px;" class="animable" id="elenl9jeeyu44"></polygon></g><polygon points="319.97 327.86 312.51 327.86 312.51 335.32 319.97 327.86" style="fill: #53B753; transform-origin: 316.24000549316406px 331.5899963378906px;" id="elh9k4ahqd8vf" class="animable"></polygon><rect x="289.49" y="297.42" width="26.26" height="1.43" style="fill: #53B753; transform-origin: 302.62px 298.135px;" id="ell1hfoo5rnn" class="animable"></rect><rect x="289.49" y="301.81" width="22.09" height="1.43" style="fill: #53B753; transform-origin: 300.535px 302.525px;" id="elrwc35wr3n7d" class="animable"></rect><rect x="289.49" y="306.19" width="26.26" height="1.43" style="fill: #53B753; transform-origin: 302.62px 306.905px;" id="elfrqn1o78r2" class="animable"></rect><rect x="289.49" y="310.58" width="9.8" height="1.43" style="fill: #53B753; transform-origin: 294.39px 311.29499999999996px;" id="el5m56y023mzf" class="animable"></rect><rect x="289.49" y="314.97" width="6.35" height="1.43" style="fill: #53B753; transform-origin: 292.665px 315.685px;" id="el0trc48h6jdtk" class="animable"></rect></g><g id="freepik--Selection--inject-27" style="transform-origin: 307.9300079345703px 173.35999298095703px;" class="animable"><rect x="272.25" y="143.9" width="71.19" height="58.82" style="fill: #53B753; transform-origin: 307.845px 173.31px;" id="elggdti8gbmlc" class="animable"></rect><g id="elaqqcm27m3f9"><path d="M272.25,143.9v58.82h71.19V143.9Zm68.87,56.5H274.58V146.22h66.54Z" style="fill: rgb(255, 255, 255); opacity: 0.6000000000000001; isolation: isolate; transform-origin: 307.8450012207031px 173.30999755859375px;" class="animable" id="elbf47r93cx7c"></path></g><g id="elswd5fxuqspl"><polygon points="274.58 184.34 294.98 169.52 310.14 184.34 325.3 175.68 341.12 185.42 341.12 200.4 274.58 200.4 274.58 184.34" style="fill: rgb(255, 255, 255); opacity: 0.30000000000000004; isolation: isolate; transform-origin: 307.84999084472656px 184.95999908447266px;" class="animable" id="elordrxqi6hbh"></polygon></g><g id="el0p04ywmgvq39"><path d="M322.64,159.59a4.87,4.87,0,1,1-4.87-4.88A4.87,4.87,0,0,1,322.64,159.59Z" style="fill: rgb(255, 255, 255); opacity: 0.6000000000000001; isolation: isolate; transform-origin: 317.7700252532959px 159.57999658584595px;" class="animable" id="ely1hb8mloayj"></path></g><polyline points="348.09 205.16 348.09 207.16 346.09 207.16" style="fill: none; stroke: rgb(38, 50, 56); stroke-miterlimit: 10; transform-origin: 347.0899963378906px 206.16000366210938px;" id="elhp0r056v4wd" class="animable"></polyline><line x1="342.95" y1="207.17" x2="271.35" y2="207.17" style="fill: none; stroke: rgb(38, 50, 56); stroke-miterlimit: 10; stroke-dasharray: 4.181238174438477px, 3.1359288692474365px; transform-origin: 307.15000915527344px 207.1699981689453px;" id="el5vozol2t7c7" class="animable"></line><polyline points="269.78 207.16 267.78 207.16 267.78 205.16" style="fill: none; stroke: rgb(38, 50, 56); stroke-miterlimit: 10; transform-origin: 268.7799987792969px 206.16000366210938px;" id="elwgu1djw40d" class="animable"></polyline><line x1="267.78" y1="202.27" x2="267.78" y2="143.01" style="fill: none; stroke: rgb(38, 50, 56); stroke-miterlimit: 10; stroke-dasharray: 3.8548424243927px, 2.89113187789917px; transform-origin: 267.7799987792969px 172.63999938964844px;" id="ellvd43ppdf5k" class="animable"></line><polyline points="267.78 141.56 267.78 139.56 269.78 139.56" style="fill: none; stroke: rgb(38, 50, 56); stroke-miterlimit: 10; transform-origin: 268.7799987792969px 140.55999755859375px;" id="elj7b3g53k52f" class="animable"></polyline><line x1="272.92" y1="139.56" x2="344.52" y2="139.56" style="fill: none; stroke: rgb(38, 50, 56); stroke-miterlimit: 10; stroke-dasharray: 4.181238174438477px, 3.1359288692474365px; transform-origin: 308.7200012207031px 139.55999755859375px;" id="elubqokdrt08" class="animable"></line><polyline points="346.09 139.56 348.09 139.56 348.09 141.56" style="fill: none; stroke: rgb(38, 50, 56); stroke-miterlimit: 10; transform-origin: 347.0899963378906px 140.55999755859375px;" id="el42mjq9rvg49" class="animable"></polyline><line x1="348.09" y1="144.45" x2="348.09" y2="203.72" style="fill: none; stroke: rgb(38, 50, 56); stroke-miterlimit: 10; stroke-dasharray: 3.8548424243927px, 2.89113187789917px; transform-origin: 348.0899963378906px 174.08499908447266px;" id="elgjlehazwss" class="animable"></line><rect x="346.51" y="137.98" width="3.15" height="3.15" style="fill: rgb(38, 50, 56); transform-origin: 348.085px 139.55499999999998px;" id="elbsjx4aavedq" class="animable"></rect><rect x="346.51" y="205.59" width="3.15" height="3.15" style="fill: rgb(38, 50, 56); transform-origin: 348.085px 207.165px;" id="elg3kucr5bk7j" class="animable"></rect><rect x="266.2" y="205.59" width="3.15" height="3.15" style="fill: rgb(38, 50, 56); transform-origin: 267.775px 207.165px;" id="eloj0bea9e3xc" class="animable"></rect><rect x="266.2" y="137.98" width="3.15" height="3.15" style="fill: rgb(38, 50, 56); transform-origin: 267.775px 139.55499999999998px;" id="elfbhwc2a5ag7" class="animable"></rect><rect x="306.27" y="137.98" width="3.15" height="3.15" style="fill: rgb(38, 50, 56); transform-origin: 307.84499999999997px 139.55499999999998px;" id="el4u9xplh8j46" class="animable"></rect><rect x="306.36" y="205.59" width="3.15" height="3.15" style="fill: rgb(38, 50, 56); transform-origin: 307.935px 207.165px;" id="elhfn421bgixv" class="animable"></rect><rect x="346.51" y="171.79" width="3.15" height="3.15" style="fill: rgb(38, 50, 56); transform-origin: 348.085px 173.36499999999998px;" id="elaa3hrjl3ce5" class="animable"></rect><rect x="266.2" y="171.79" width="3.15" height="3.15" style="fill: rgb(38, 50, 56); transform-origin: 267.775px 173.36499999999998px;" id="elqnirmq2erp" class="animable"></rect></g><g id="freepik--Character--inject-27" style="transform-origin: 219.54906463623047px 288.6703338623047px;" class="animable"><path d="M175,236.62l-10.64,8.64s-2.6.05-3.42.91-4,7.25-3.51,8.12,5.69,2.59,6.8,1.56,3-6.94,3-7.57l13.6-9.12Z" style="fill: rgb(235, 179, 118); transform-origin: 169.10450077056885px 246.39441871643066px;" id="elsdffm99oq8k" class="animable"></path><path d="M169.28,240.61l2.38,5.19S186.29,239,189.46,235c.81-1,1.93-2.67,3.14-4.54,2-3.09,4.24-6.81,5.8-9.42,1.16-1.95,1.94-3.28,1.94-3.28l-8.28-13.06c-1.81,1.39-7.35,23.71-8.34,24.91S169.28,240.61,169.28,240.61Z" style="fill: #53B753; transform-origin: 184.81000518798828px 225.25000762939453px;" id="elq0zleg0doua" class="animable"></path><g style="clip-path: url(&quot;#freepik--clip-path--inject-27&quot;); transform-origin: 195.49664449691772px 220.95999908447266px;" id="el9uwfbx2z63h" class="animable"><g id="el3apffhl2k9v"><path d="M192.6,230.42c2-3.09,4.24-6.81,5.8-9.42l-3.85-9.5S192.46,222.4,192.6,230.42Z" style="opacity: 0.1; isolation: isolate; transform-origin: 195.49664449691772px 220.95999908447266px;" class="animable" id="el0u6vkd2yvzh"></path></g></g><path d="M260.05,187.25l10.48-8.14s.85-2.46,1.92-3,8.11-1.55,8.8-.86.72,6.22-.6,7-7.53.76-8.12.53l-11.45,8.36Z" style="fill: rgb(235, 179, 118); transform-origin: 270.8845739364624px 183.07848644256592px;" id="elvo18fqtujel" class="animable"></path><polygon points="171.53 411 177.8 412.11 180.38 403.55 182.72 395.69 175.49 393.16 173.39 402.6 171.53 411" style="fill: rgb(235, 179, 118); transform-origin: 177.125px 402.63499450683594px;" id="elhlvvc3gld9" class="animable"></polygon><g id="eltw9o5crr95l"><polygon points="173.35 402.8 180.35 403.72 182.71 395.78 175.48 393.2 173.35 402.8" style="opacity: 0.2; isolation: isolate; transform-origin: 178.0300064086914px 398.4600067138672px;" class="animable" id="el1qgxde3a8z"></polygon></g><polygon points="213.43 411.15 219.81 411.15 220.85 402.6 221.8 394.62 214.23 393.47 213.81 402.85 213.43 411.15" style="fill: rgb(235, 179, 118); transform-origin: 217.61499786376953px 402.30999755859375px;" id="elhw1m0xcedwl" class="animable"></polygon><g id="eld06ili2h2o"><polygon points="213.81 403.41 220.85 403.1 221.8 394.87 214.23 393.59 213.81 403.41" style="opacity: 0.2; isolation: isolate; transform-origin: 217.80500030517578px 398.5px;" class="animable" id="elcqhjdw87hir"></polygon></g><path d="M172.76,395.93l10.32,1.82c10.41-25.94,17.82-47.6,23-65.57,2.82-9.7,5.05-18.32,6.74-26l-.44,28.25v63.71h10.41c25.49-121,7.43-149.13,7.43-149.13l-30.5-5.1a137.19,137.19,0,0,0-2.55,17.12l-1.38,10.11-11.92,61.58Z" style="fill: rgb(38, 50, 56); transform-origin: 204.59370231628418px 321.0249786376953px;" id="elu55zbj626l" class="animable"></path><polygon points="184.7 396.48 171.9 392.23 172.07 397.68 182.66 401.05 184.7 396.48" style="fill: #53B753; transform-origin: 178.29999542236328px 396.63999938964844px;" id="elbok3hrjyqwi" class="animable"></polygon><g id="el06jkylrgt4cp"><polygon points="184.7 396.48 171.9 392.23 172.07 397.68 182.66 401.05 184.7 396.48" style="fill: rgb(255, 255, 255); opacity: 0.6000000000000001; isolation: isolate; transform-origin: 178.29999542236328px 396.63999938964844px;" class="animable" id="elt3bi65cl64r"></polygon></g><polygon points="224.21 397.07 210.87 395.11 211.98 400.45 222.99 401.93 224.21 397.07" style="fill: #53B753; transform-origin: 217.54000091552734px 398.5199890136719px;" id="ellphzicd3q8" class="animable"></polygon><g id="elpajwemx6d9g"><polygon points="224.21 397.07 210.87 395.11 211.98 400.45 222.99 401.93 224.21 397.07" style="fill: rgb(255, 255, 255); opacity: 0.6000000000000001; isolation: isolate; transform-origin: 217.54000091552734px 398.5199890136719px;" class="animable" id="el1lg7sak8gee"></polygon></g><g id="eld4cvgo18a3d"><path d="M204.73,336.93c.48-1.62,1-3.2,1.44-4.75,2.56-8.81,4.26-16.72,6.26-23.83v0l1-13.08s-6.53-14.37-4.09-24.48c-.22.57-4.54,11.59-2.84,22.6A320.44,320.44,0,0,1,204.73,336.93Z" style="opacity: 0.2; isolation: isolate; transform-origin: 209.07999420166016px 303.86000061035156px;" class="animable" id="el08sfgmqiuj3"></path></g><path d="M203.85,191.53a1.43,1.43,0,0,0,.27.15,11,11,0,0,0,4.15,1.4c4.26.42,7-.51,8.6-2.62h0c2.22-3.14,2.21-8.19,1.07-14.14a22.75,22.75,0,0,0-2.22-6.82s0-.09,0-.11-.09-.17-.14-.24a8.24,8.24,0,0,0-6.66-4.21,16.23,16.23,0,0,0-3.59.07C193.61,166.4,194,186,203.85,191.53Z" style="fill: rgb(235, 179, 118); transform-origin: 207.5964994430542px 179.02546787261963px;" id="el7cn2367f2s7" class="animable"></path><g id="el20hzwddzlfl"><path d="M204.12,191.68a10.76,10.76,0,0,0,4.13,1.24c4.26.42,7-.65,8.58-2.79a11.75,11.75,0,0,1-7.49.36A6.1,6.1,0,0,0,204.12,191.68Z" style="opacity: 0.2; isolation: isolate; transform-origin: 210.4749984741211px 191.57000350952148px;" class="animable" id="elx46hq7q12h"></path></g><path d="M203.24,201.25c-1.05,3.26,3.14,5.05,3.14,5.05,7.37-2.33,9.05-6,9.05-6-5.6-3.66-3-12.19-3-12.19l-1.26.47-8.59.82s1.9,4.72,2.11,5.77v0C205.72,200.74,203.24,201.25,203.24,201.25Z" style="fill: rgb(235, 179, 118); transform-origin: 209.00501251220703px 197.2050018310547px;" id="el4keart5awtk" class="animable"></path><path d="M215.73,169.42s1.71,8.11-5.6,12.64c0,0-2.22,8.94-7.12,9.7-6.67,1-13.8-7.72-12.75-17.72C191.63,161.08,210.55,157.58,215.73,169.42Z" style="fill: rgb(38, 50, 56); transform-origin: 203.03010272979736px 177.01111221313477px;" id="elfycylh7kkk4" class="animable"></path><path d="M213.76,179.19c-.17-1.28-1.48-3.29-3.43-2.74s-2.49,5.79,2.71,6.26C213.78,182.78,214.11,181.86,213.76,179.19Z" style="fill: rgb(235, 179, 118); transform-origin: 211.42003679275513px 179.53524351119995px;" id="el3nea8c2au8c" class="animable"></path><path d="M220.48,410h-7.11a.63.63,0,0,0-.63.51l-1.46,6.59a1.09,1.09,0,0,0,.84,1.3,1,1,0,0,0,.24,0c2.91,0,3.15-.22,6.8-.22,2.25,0,9.05.23,12.16.23s3.51-3.07,2.24-3.35c-5.71-1.25-10-3-11.83-4.61A1.8,1.8,0,0,0,220.48,410Z" style="fill: rgb(38, 50, 56); transform-origin: 222.74506092071533px 414.20452785491943px;" id="el7wz4znl61z2" class="animable"></path><path d="M221,411a.16.16,0,0,1-.13-.15.17.17,0,0,1,.08-.17c.27-.17,2.66-1.64,3.48-1.21a.52.52,0,0,1,.3.49,1,1,0,0,1-.37.94,2.15,2.15,0,0,1-1.42.38A8.57,8.57,0,0,1,221,411Zm.51-.24a3.65,3.65,0,0,0,2.64-.13.72.72,0,0,0,.23-.63c0-.15-.06-.21-.11-.21a.46.46,0,0,0-.23-.05A7.25,7.25,0,0,0,221.5,410.73Z" style="fill: #53B753; transform-origin: 222.80506777763367px 410.3398877978325px;" id="elsr027d8n2nc" class="animable"></path><path d="M220.94,411a.18.18,0,0,1-.08-.16c0-.1.19-2.23,1-2.93a.94.94,0,0,1,.75-.22.56.56,0,0,1,.56.46c.16.78-1.32,2.41-2.09,2.82H221A.17.17,0,0,1,220.94,411Zm1.19-2.88a4.14,4.14,0,0,0-.88,2.32c.77-.58,1.71-1.81,1.62-2.29,0-.05,0-.18-.26-.18h-.08A.59.59,0,0,0,222.13,408.13Z" style="fill: #53B753; transform-origin: 222.02084231376648px 409.3401770591736px;" id="elt8r4nf03pgh" class="animable"></path><path d="M178.05,410h-7.12a.65.65,0,0,0-.63.51l-1.46,6.59a1.09,1.09,0,0,0,.84,1.3,1,1,0,0,0,.24,0c2.92,0,3.15-.22,6.81-.22,2.25,0,9,.23,12.15.23s3.52-3.07,2.25-3.35c-5.71-1.25-10-3-11.84-4.61A1.78,1.78,0,0,0,178.05,410Z" style="fill: rgb(38, 50, 56); transform-origin: 180.3133726119995px 414.2045273780823px;" id="elmdim4wznby" class="animable"></path><path d="M178.55,411a.16.16,0,0,1-.13-.15.18.18,0,0,1,.09-.17c.26-.17,2.65-1.64,3.48-1.21a.55.55,0,0,1,.3.49,1,1,0,0,1-.37.94,2.19,2.19,0,0,1-1.42.38A8.58,8.58,0,0,1,178.55,411Zm.51-.24a3.65,3.65,0,0,0,2.64-.13.73.73,0,0,0,.24-.63c0-.15-.07-.21-.12-.21a.4.4,0,0,0-.22-.05A7.37,7.37,0,0,0,179.06,410.73Z" style="fill: #53B753; transform-origin: 180.3606948852539px 410.33933967351913px;" id="eleftrfsm91zi" class="animable"></path><path d="M178.51,411a.17.17,0,0,1-.09-.16c0-.1.19-2.23,1.05-2.93a.9.9,0,0,1,.74-.22.57.57,0,0,1,.57.46c.15.78-1.33,2.41-2.09,2.82h-.09Zm1.18-2.88a4.13,4.13,0,0,0-.87,2.32c.76-.58,1.7-1.81,1.61-2.29,0-.05,0-.18-.25-.18h-.09A.59.59,0,0,0,179.69,408.13Z" style="fill: #53B753; transform-origin: 179.6051503419876px 409.3396409749985px;" id="elskuhqm4t3mq" class="animable"></path><path d="M230.27,249.14s5.82-35.45-4.18-51.34c0,0-20-1.24-34,6.87,0,0,5.8,15.78,6.67,44.47Z" style="fill: #53B753; transform-origin: 212.0219554901123px 223.4359951019287px;" id="elw9zpko2342h" class="animable"></path><g style="clip-path: url(&quot;#freepik--clip-path-2--inject-27&quot;); transform-origin: 228.17212533950806px 211.49500274658203px;" id="elud25ln9iak" class="animable"><g id="ellvhb7j6j8dl"><path d="M232.09,222c.43-4.81-1-9.44-1.2-13.52a39.43,39.43,0,0,1-6.58-7.49S222.5,215.36,232.09,222Z" style="opacity: 0.1; isolation: isolate; transform-origin: 228.17212533950806px 211.49500274658203px;" class="animable" id="elgftxon236p"></path></g></g><path d="M223.61,197.73s19.79-2.32,22.77-3.57c1.86-.78,16.41-10.29,16.41-10.29L266.2,189s-14.88,12-17.4,13.4c-5.9,3.24-19.16,7.82-19.16,7.82S221.63,204.6,223.61,197.73Z" style="fill: #53B753; transform-origin: 244.74765396118164px 197.0449981689453px;" id="el0tszaqx9t4cd" class="animable"></path><path d="M215.43,174.79s8.23-8.23.47-13.77-15.56,1.69-15.56,1.69-18.56,4.48-14.61,16.83,6.53,13.39.65,19.72S174.5,215,180.51,221s27-.17,33.39-9.22S209,183.28,215.43,174.79Z" style="fill: rgb(38, 50, 56); transform-origin: 198.62316131591797px 191.15639114379883px;" id="elzypdg58sdpm" class="animable"></path><polygon points="198.74 249.14 198.61 245.78 230.63 246.59 230.63 249.7 198.74 249.14" id="elp9tz5a3sm5q" style="transform-origin: 214.62000274658203px 247.73999786376953px;" class="animable"></polygon><rect x="207.6" y="246.01" width="1.29" height="3.31" style="fill: rgb(38, 50, 56); transform-origin: 208.245px 247.665px;" id="elx2g4xsriwh" class="animable"></rect><rect x="222.53" y="246.38" width="1.14" height="3.62" style="fill: rgb(38, 50, 56); transform-origin: 223.1px 248.19px;" id="el6r5ynq0zrv" class="animable"></rect><rect x="199.49" y="245.83" width="1.09" height="3.87" style="fill: rgb(38, 50, 56); transform-origin: 200.035px 247.76500000000001px;" id="elphbhx05wa8" class="animable"></rect></g><defs>     <filter id="active" height="200%">         <feMorphology in="SourceAlpha" result="DILATED" operator="dilate" radius="2"></feMorphology>                <feFlood flood-color="#32DFEC" flood-opacity="1" result="PINK"></feFlood>        <feComposite in="PINK" in2="DILATED" operator="in" result="OUTLINE"></feComposite>        <feMerge>            <feMergeNode in="OUTLINE"></feMergeNode>            <feMergeNode in="SourceGraphic"></feMergeNode>        </feMerge>    </filter>    <filter id="hover" height="200%">        <feMorphology in="SourceAlpha" result="DILATED" operator="dilate" radius="2"></feMorphology>                <feFlood flood-color="#ff0000" flood-opacity="0.5" result="PINK"></feFlood>        <feComposite in="PINK" in2="DILATED" operator="in" result="OUTLINE"></feComposite>        <feMerge>            <feMergeNode in="OUTLINE"></feMergeNode>            <feMergeNode in="SourceGraphic"></feMergeNode>        </feMerge>            <feColorMatrix type="matrix" values="0   0   0   0   0                0   1   0   0   0                0   0   0   0   0                0   0   0   1   0 "></feColorMatrix>    </filter></defs><defs><clipPath id="freepik--clip-path--inject-27"><path d="M169.28,240.61l2.38,5.19S186.29,239,189.46,235c.81-1,1.93-2.67,3.14-4.54,2-3.09,4.24-6.81,5.8-9.42,1.16-1.95,1.94-3.28,1.94-3.28l-8.28-13.06c-1.81,1.39-7.35,23.71-8.34,24.91S169.28,240.61,169.28,240.61Z" style="fill:#407BFF"></path></clipPath><clipPath id="freepik--clip-path-2--inject-27"><path d="M230.27,249.14s5.82-35.45-4.18-51.34c0,0-20-1.24-34,6.87,0,0,5.8,15.78,6.67,44.47Z" style="fill:#407BFF"></path></clipPath></defs></svg>