<?xml version="1.0" standalone="no"?><!DOCTYPE svg PUBLIC "-//W3C//DTD SVG 1.1//EN" "http://www.w3.org/Graphics/SVG/1.1/DTD/svg11.dtd"><svg t="1637719211668" class="icon" viewBox="0 0 1024 1024" version="1.1" xmlns="http://www.w3.org/2000/svg" p-id="76117" xmlns:xlink="http://www.w3.org/1999/xlink" width="200" height="200"><defs><style type="text/css"></style></defs><path d="M771.2 308.053333H810.666667a42.666667 42.666667 0 0 1 42.666666 42.666667v213.333333a42.666667 42.666667 0 0 1-42.666666 42.666667h-77.674667L554.453333 348.8l-20.757333-29.397333-127.061333 58.666666a42.666667 42.666667 0 0 1-26.282667 3.093334c-38.784-7.786667-51.797333-21.354667-39.04-40.725334 12.352-18.752 64.917333-56.469333 157.717333-113.194666 2.432-1.493333 4.949333-2.773333 7.530667-3.797334 38.976-18.346667 83.456-11.733333 133.418667 19.861334a687.146667 687.146667 0 0 0 131.2 64.746666zM199.808 604.522667A42.666667 42.666667 0 0 1 170.666667 564.053333v-213.333333a42.666667 42.666667 0 0 1 42.666666-42.666667h98.389334l-0.170667 0.149334a55.253333 55.253333 0 0 0 2.282667 84.053333 114.624 114.624 0 0 0 111.253333 18.496l95.978667-34.986667 67.306666 97.28a42.88 42.88 0 0 1 5.568 6.528l117.973334 170.496a42.666667 42.666667 0 0 1-16.149334 62.506667l-188.458666 93.248c-8.746667 4.330667-18.346667 5.397333-27.306667 3.584l6.976-7.061333a85.333333 85.333333 0 0 0 0-119.978667l-136.533333-138.154667a64 64 0 0 0-91.050667 0l-59.605333 60.309334z m133.76-18.346667l121.088 122.496a42.666667 42.666667 0 0 1 10.88 40.938667l-6.101333 23.104a32.896 32.896 0 0 1-51.285334 18.069333L252.458667 676.266667a42.666667 42.666667 0 0 1-5.056-64.362667l25.450666-25.770667a42.666667 42.666667 0 0 1 60.693334 0z" fill="#2A2A37" p-id="76118"></path></svg>