<?xml version="1.0" standalone="no"?><!DOCTYPE svg PUBLIC "-//W3C//DTD SVG 1.1//EN" "http://www.w3.org/Graphics/SVG/1.1/DTD/svg11.dtd"><svg t="1637717124176" class="icon" viewBox="0 0 1024 1024" version="1.1" xmlns="http://www.w3.org/2000/svg" p-id="54502" xmlns:xlink="http://www.w3.org/1999/xlink" width="200" height="200"><defs><style type="text/css"></style></defs><path d="M992 902.4h-64V460.8c0-38.4-25.6-73.6-57.6-83.2l-252.8-80c-9.6-3.2-19.2 0-28.8 3.2-6.4 6.4-12.8 16-12.8 25.6v576h-32v-768c0-25.6-9.6-44.8-28.8-60.8-22.4-16-51.2-19.2-80-12.8L163.2 137.6C124.8 147.2 96 185.6 96 227.2v678.4H32c-19.2 0-32 12.8-32 32s12.8 32 32 32h960c19.2 0 32-12.8 32-32s-12.8-35.2-32-35.2z m-272-288h64c19.2 0 32 12.8 32 32s-12.8 32-32 32h-64c-19.2 0-32-12.8-32-32s12.8-32 32-32zM256 358.4h128c19.2 0 32 12.8 32 32s-12.8 32-32 32H256c-19.2 0-32-12.8-32-32s12.8-32 32-32z m0 256h128c19.2 0 32 12.8 32 32s-12.8 32-32 32H256c-19.2 0-32-12.8-32-32s12.8-32 32-32z" p-id="54503"></path></svg>