<?xml version="1.0" standalone="no"?><!DOCTYPE svg PUBLIC "-//W3C//DTD SVG 1.1//EN" "http://www.w3.org/Graphics/SVG/1.1/DTD/svg11.dtd"><svg t="1637717002435" class="icon" viewBox="0 0 1226 1024" version="1.1" xmlns="http://www.w3.org/2000/svg" p-id="44708" xmlns:xlink="http://www.w3.org/1999/xlink" width="239.453125" height="200"><defs><style type="text/css"></style></defs><path d="M508.670026 0h668.153419c13.714756 1.158252 27.271568 6.831054 36.353316 17.413265 8.199897 8.726375 12.069512 20.440514 13.517326 32.128329v742.992288c-0.947661 5.291105-1.434653 10.740154-3.382622 15.807506-5.225296 15.070437-17.952905 27.324216-33.233933 31.904576-9.015938 2.89563-18.558355 2.22437-27.877018 2.29018h-49.949614c-1.355681 20.940668-5.870231 41.736555-13.846376 61.163599-16.083907 39.604319-45.856247 73.470026-83.104575 94.437018-36.932442 21.124936-81.051311 29.10108-123.07743 22.691208-43.039589-6.317738-83.53892-28.061285-112.758457-60.268586-29.482776-32.009871-47.422519-74.365039-49.765347-117.82581-59.571003-0.408021-119.128843-0.092134-178.699846-0.184267-1.184576 18.72946-4.883085 37.340463-11.437738 54.951157-13.938509 38.261799-40.578303 71.640514-74.588792 94.002673-38.090694 25.231465-85.407918 35.984781-130.671876 29.785502-40.736247-5.264781-79.511362-24.283805-108.744062-53.134808-33.760411-32.799589-54.50365-78.458406-57.162365-125.446581-34.615938-0.342211-69.245039-0.026324-103.860977-0.236915-24.139023-0.394859-47.475167-15.29419-57.504576-37.327301-9.068586-19.348072-7.252237-43.079075 3.803805-61.229408 8.884319-14.912494 24.217995-25.823753 41.315373-28.995784 0.289563-85.605347-0.026324-171.210694 0.157943-256.80288 0.276401-33.207609 14.82036-65.388586 37.366787-89.435475 43.223856-43.18437 86.381902-86.43455 129.632082-129.579435 22.625398-22.348997 54.293059-34.918663 86.052853-34.6291 51.73964-0.052648 103.47928 0 155.218921-0.026324 0.052648-51.028895-0.026324-102.044627 0.039486-153.06036-0.026324-11.951054 4.317121-23.836298 12.082673-32.904884 8.857995-10.832288 22.270026-16.847301 35.97162-18.479383m90.659537 105.90108c-9.423959 2.540257-17.005244 10.753316-18.742622 20.361542-1.263548 7.199589-0.434344 15.044113 3.659023 21.256555 4.725141 7.594447 13.556812 12.306427 22.493779 12.161646 164.498098 0.039486 328.996195 0.013162 493.481131 0.013162 8.673728 0.302725 17.400103-3.830129 22.414807-10.937584 5.25162-7.133779 6.146632-16.768329 3.843291-25.139332-3.079897-10.71383-13.622622-18.703136-24.783959-18.650488-164.958766-0.052648-329.930694-0.013162-494.902622-0.026324-2.513933 0.026324-5.041028 0.263239-7.462828 0.960823M288.444216 312.069923c-37.695835 37.314139-75.391671 74.64144-113.087506 111.955578-11.648329 11.622005-16.597224 28.416658-17.163188 44.52689-0.039486 20.058817-0.013162 40.130797-0.013162 60.202776 42.026118-0.052648 84.039075-0.355373 126.065193-0.434344 67.323393-0.486992 134.686272-0.250077 201.996504-1.066119-0.144781-79.919383-0.210591-159.838766 0.026323-239.744987-45.356093-0.526478-90.751671-0.092134-136.120925-0.210591-22.375321 1.039794-46.119486 7.778715-61.703239 24.770797m314.518046-24.849769c-10.384781 1.224062-19.46653 9.279177-22.006786 19.413882-1.947969 8.213059-0.934499 17.479075 4.251311 24.349614 5.133162 7.199589 14.070129 11.174499 22.849151 10.792802 161.918355 0 323.83671-0.013162 485.755065 0 5.764936-0.026324 11.779949 0.408021 17.228997-1.921645 15.42581-5.620154 21.098612-25.994859 13.056658-39.696452-4.488226-7.88401-13.293573-13.13563-22.388483-13.122468-98.280308-0.039486-196.573779-0.013162-294.854088-0.013162-67.955167 0.13162-135.936658-0.276401-203.891825 0.197429m-1.276709 168.565142c-9.937275 1.697892-18.413573 9.63455-20.782725 19.427043-1.776864 7.857686-0.947661 16.649871 3.764319 23.362468 4.804113 7.225913 13.385707 11.714139 22.072596 11.490386 164.98509 0 329.957018 0.013162 494.928946 0 7.989306-0.013162 15.83383-4.001234 20.598458-10.397944 5.804422-7.47599 6.699434-17.939743 3.84329-26.771414-3.606375-10.661183-14.596607-18.058201-25.823753-17.571208-164.076915-0.026324-328.166992 0-492.243908-0.013162-2.132237 0.026324-4.264473 0.118458-6.357223 0.473831M346.672699 762.774704c-26.560823 3.566889-49.594242 24.665501-55.503959 50.79198-4.962057 20.203599 0.250077 42.499949 13.622622 58.439074 11.411414 13.899023 28.627249 22.796504 46.580155 24.073214 17.11054 1.355681 34.655424-4.172339 47.843702-15.175733 15.22838-12.490694 24.481234-31.957224 24.336452-51.67383 0.157943-19.413882-8.739537-38.643496-23.586221-51.13419-14.464987-12.490694-34.418509-18.176658-53.292751-15.320515m562.265502 0.276401c-13.622622 2.316504-26.429203 9.0291-36.142725 18.847918-13.043496 13.00401-20.282571 31.562365-19.427044 49.975938 0.618612 18.79527 9.726684 37.064062 24.244319 48.988792 12.819743 10.71383 29.772339 16.268175 46.448534 15.307352 17.492237-0.868689 34.484319-8.96329 46.158972-22.03311 12.569666-13.767404 18.913728-32.94437 16.97892-51.489563-1.68473-19.255938-12.424884-37.300977-28.206066-48.383342-14.320206-10.200514-32.760103-14.254396-50.05491-11.213985z" p-id="44709"></path></svg>