<?xml version="1.0" encoding="UTF-8"?>
<svg width="46px" height="46px" viewBox="0 0 46 46" version="1.1" xmlns="http://www.w3.org/2000/svg" xmlns:xlink="http://www.w3.org/1999/xlink">
    <title>编组 8</title>
    <g id="页面-1" stroke="none" stroke-width="1" fill="none" fill-rule="evenodd">
        <g id="原生联首页备份" transform="translate(-342.000000, -648.000000)">
            <g id="编组-8" transform="translate(342.000000, 648.000000)">
                <circle id="椭圆形" stroke="#53B753" cx="23" cy="23" r="22.5"></circle>
                <g id="编组" transform="translate(10.000000, 7.000000)" fill="#53B753" fill-rule="nonzero">
                    <path d="M19.500572,32 C15.9105388,32 13.0003813,29.0504348 13.0003813,25.4117874 C13.0003813,21.7731401 15.9105388,18.8235749 19.500572,18.8235749 C23.0906051,18.8235749 26,21.7731401 26,25.4117874 C26,29.0504348 23.0909864,32 19.500572,32 Z M23.7182413,23.1250242 C23.3556155,22.7574879 22.766873,22.7574879 22.4050098,23.1250242 L19.1211686,26.4521739 L17.1517027,24.4560386 C16.7890769,24.0885024 16.2014783,24.0885024 15.8384712,24.4560386 C15.4758455,24.8235749 15.4758455,25.4191304 15.8384712,25.7870531 L18.4645528,28.4486957 C18.8271786,28.8162319 19.4159212,28.8162319 19.7785469,28.4486957 L23.7182413,24.4560386 C24.0812484,24.0881159 24.0812484,23.4925604 23.7182413,23.1250242 L23.7182413,23.1250242 Z M19.1287948,16.9603865 C19.097146,16.9576812 19.0689291,16.9410628 19.0353738,16.9410628 L5.10726542,16.9410628 C4.33740064,16.9410628 3.71357757,17.5733333 3.71357757,18.3528502 C3.71357757,19.1323671 4.33740064,19.7646377 5.10726542,19.7646377 L13.2833133,19.7646377 C12.5622562,20.5800966 11.9963922,21.5350725 11.6284281,22.5882126 L5.10726542,22.5882126 C4.33740064,22.5882126 3.71357757,23.2204831 3.71357757,24 C3.71357757,24.7795169 4.33740064,25.4117874 5.10726542,25.4117874 L11.1430206,25.4117874 C11.1430206,27.1536232 11.662746,28.7710145 12.5523421,30.1178744 L3.71357757,30.1178744 C1.66213006,30.1178744 0,28.4320773 0,26.3532367 L0,7.52966184 C0,5.45043478 1.66213006,3.76502415 3.71357757,3.76502415 L5.57093832,3.76502415 L5.57093832,7.52966184 L18.5724636,7.52966184 L18.5724636,3.76502415 L20.4298243,3.76502415 C22.4808905,3.76502415 24.1434019,5.45082126 24.1434019,7.52966184 L24.1434019,18.3698551 C22.8156806,17.4682126 21.2198985,16.9414493 19.5013346,16.9414493 C19.3747397,16.9410628 19.2531018,16.9549758 19.1287948,16.9603865 L19.1287948,16.9603865 Z M20.429443,12.7057005 C20.429443,11.9261836 19.8056199,11.293913 19.0357551,11.293913 L5.10726542,11.293913 C4.33740064,11.293913 3.71357757,11.9261836 3.71357757,12.7057005 C3.71357757,13.4852174 4.33740064,14.1174881 5.10726542,14.1174881 L19.0353738,14.1174881 C19.8052386,14.1178744 20.429443,13.4852174 20.429443,12.7057005 Z M11.1434019,5.64714976 L7.42791775,5.64714976 L7.42791775,1.88251208 L9.2852785,1.88251208 C9.2852785,0.842898551 10.1176781,0 11.1434019,0 L13.0007626,0 C14.0264864,0 14.8581234,0.842898551 14.8581234,1.88251208 L16.7154841,1.88251208 L16.7154841,5.64714976 L11.1434019,5.64714976 Z M12.071129,1.88251208 C11.5597923,1.88251208 11.1434019,2.30338164 11.1434019,2.82357488 C11.1434019,3.34376812 11.5597923,3.76463768 12.071129,3.76463768 C12.5843722,3.76463768 13.0007626,3.34376812 13.0007626,2.82357488 C13.0007626,2.30338164 12.5843722,1.88251208 12.071129,1.88251208 Z" id="形状"></path>
                </g>
            </g>
        </g>
    </g>
</svg>