<?xml version="1.0" encoding="UTF-8"?>
<svg width="46px" height="46px" viewBox="0 0 46 46" version="1.1" xmlns="http://www.w3.org/2000/svg" xmlns:xlink="http://www.w3.org/1999/xlink">
    <title>编组 3</title>
    <g id="页面-1" stroke="none" stroke-width="1" fill="none" fill-rule="evenodd">
        <g id="原生联首页备份" transform="translate(-672.000000, -648.000000)">
            <g id="编组-3" transform="translate(672.000000, 648.000000)">
                <circle id="椭圆形备份" stroke="#979797" cx="23" cy="23" r="22.5"></circle>
                <g id="编组" transform="translate(6.000000, 10.000000)" fill="#808080" fill-rule="nonzero">
                    <path d="M27.34875,21.2239378 L28.373,20.2015042 L19.5347,11.0114805 C18.47985,11.7242143 17.3094,12.0398535 16.0242,11.9617922 C14.7373,11.8837309 13.6425,11.3339077 12.74405,10.3157165 C11.7198,9.26613111 11.2098,8.02733186 11.2098,6.60440971 C11.2098,5.18233606 11.7198,3.94268832 12.74405,2.89055745 L14.79255,0.846538691 C13.7377,0.167744583 12.65225,-0.10377306 11.53705,0.0353797319 C10.42015,0.174532524 9.34915,0.663264282 8.3283,1.49818103 L1.53425,8.64588299 C0.51,9.69716537 0,10.8825096 0,12.1959762 C0,13.5136852 0.51,14.7117568 1.53425,15.7952819 L10.37255,24.9369416 C12.0785,26.9818088 14.1083,28 16.4662,28 L18.18745,28 C18.34385,28 18.52065,27.9864241 18.72125,27.9524844 C18.92185,27.9219387 19.1947,27.8303015 19.5347,27.6741788 L21.5832,26.6525937 C21.7702,26.4956226 21.94615,26.3810761 22.117,26.3021662 C22.2997323,26.2156398 22.4655309,26.097258 22.6066,25.9525873 C22.7936,25.9525873 22.9636,25.8813139 23.1166,25.7421611 C23.273,25.6030083 23.44385,25.4400977 23.6266,25.2534293 L23.95385,24.9276082 L25.6751,23.2094106 L27.3496,21.2239378 L27.34875,21.2239378 Z M14.6965,6.60440971 C14.6965,7.13047515 14.94555,7.57847926 15.44195,7.94927054 C15.81255,8.28866759 16.21715,8.45836612 16.64895,8.45836612 C17.085,8.45836612 17.4862,8.28866759 17.85765,7.94927054 L18.50705,7.30017367 C18.69405,7.11350529 18.92525,7.00489824 19.20405,6.9743525 C19.4905,6.94380677 19.71405,6.92683691 19.8849,6.92683691 C20.0549,6.92683691 20.2249,6.95738265 20.3949,7.01847412 C20.5649,7.08295956 20.72895,7.28320382 20.88535,7.62344937 L30.7921,17.7883911 L32.46575,15.791888 C33.49,14.7083629 34,13.5094428 34,12.1925822 C34,10.8791156 33.49,9.6937714 32.46575,8.64164053 L25.6751,1.49478706 C25.1723604,1.15190674 24.6434554,0.848914331 24.09325,0.58859693 C23.5168692,0.322983919 22.8911619,0.180780274 22.2564,0.171138553 C21.58915,0.157562671 20.98395,0.249199876 20.4425,0.449444138 C19.8985,0.6496884 19.3817,0.999267365 18.88445,1.49478706 L15.44195,5.25700341 C14.94555,5.6269462 14.6965,6.07834428 14.6965,6.60440971 Z" id="形状"></path>
                </g>
            </g>
        </g>
    </g>
</svg>