<?xml version="1.0" encoding="UTF-8"?>
<svg width="46px" height="46px" viewBox="0 0 46 46" version="1.1" xmlns="http://www.w3.org/2000/svg" xmlns:xlink="http://www.w3.org/1999/xlink">
    <title>编组 6</title>
    <g id="页面-1" stroke="none" stroke-width="1" fill="none" fill-rule="evenodd">
        <g id="原生联首页备份" transform="translate(-1002.000000, -648.000000)">
            <g id="编组-6" transform="translate(1002.000000, 648.000000)">
                <circle id="椭圆形备份-2" stroke="#979797" cx="23" cy="23" r="22.5"></circle>
                <g id="编组" transform="translate(7.000000, 10.000000)" fill="#808080" fill-rule="nonzero">
                    <path d="M12.8363717,0 L29.7384381,0 C30.085376,0.0294373659 30.4283184,0.173613545 30.6580565,0.442564013 C30.8654867,0.664347782 30.9633751,0.962066582 31,1.25911635 L31,20.1425164 C30.9760273,20.2769916 30.963708,20.415481 30.9144309,20.5442695 C30.7822482,20.9272897 30.4602819,21.2387237 30.0737226,21.3551351 C29.8456492,21.4287285 29.6042577,21.4116682 29.3685264,21.4133408 L28.1049668,21.4133408 C28.0706725,21.9455549 27.9564694,22.4740894 27.7546994,22.9678343 C27.3478298,23.9743914 26.5946883,24.8350998 25.6524291,25.367983 C24.7181608,25.9048804 23.6020997,26.1075968 22.5389782,25.9446877 C21.4502193,25.7841203 20.4257205,25.2315007 19.6865631,24.4129412 C18.9407466,23.5993996 18.4869305,22.5229287 18.4276648,21.4183585 C16.9207159,21.4079885 15.4141,21.4160169 13.9071511,21.4136753 C13.8771853,21.8896908 13.7836252,22.3626958 13.6178142,22.8102775 C13.2652162,23.782714 12.5913177,24.6310454 11.7309651,25.1993872 C10.7673968,25.8406534 9.57042792,26.1139526 8.42539985,25.9563958 C7.39490785,25.8225896 6.41402599,25.3392147 5.67453559,24.6059567 C4.82050912,23.7723441 4.29577394,22.6119098 4.22851727,21.4176894 C3.3528488,21.408992 2.47684735,21.4170204 1.60117888,21.4116682 C0.990541624,21.4016327 0.400214547,21.0229612 0.146503749,20.4629822 C-0.0829014118,19.9712444 -0.0369538038,19.368113 0.242727405,18.9068161 C0.467471222,18.52781 0.855362389,18.2504967 1.28786937,18.1698785 C1.29519435,15.9941897 1.28720346,13.8185008 1.2918648,11.6431465 C1.29885683,10.7991639 1.66677078,9.98127351 2.23712063,9.3701137 C3.33054089,8.27256834 4.42229637,7.17335041 5.51638254,6.07680858 C6.0887301,5.50880127 6.88981694,5.18933896 7.69323443,5.1966983 C9.00207579,5.19536023 10.3109172,5.1966983 11.6197585,5.19602927 C11.6210904,3.89911266 11.6190926,2.6025306 11.6207574,1.30594851 C11.6200915,1.00220843 11.7299663,0.700140939 11.926409,0.469659762 C12.1504869,0.194353503 12.4897668,0.0414799154 12.8363717,0 M15.1297574,2.69151173 C14.8913625,2.75607322 14.6995811,2.96481089 14.6556312,3.2090072 C14.6236677,3.39198718 14.6446438,3.59135841 14.7481924,3.74924972 C14.8677228,3.94226516 15.0911348,4.06202172 15.3172104,4.05834207 C19.4784669,4.05934562 23.6397234,4.05867658 27.800647,4.05867658 C28.0200636,4.06637044 28.2408119,3.96133256 28.3676673,3.78069419 C28.5005159,3.59938679 28.5231567,3.35452144 28.4648898,3.14176957 C28.3869786,2.86947396 28.1202827,2.66642305 27.8379378,2.66776112 C23.6650279,2.66642305 19.4917851,2.6674266 15.3185422,2.66709209 C15.2549481,2.66776112 15.1910209,2.67378239 15.1297574,2.69151173 M7.26538882,7.93136253 C6.31180917,8.87971398 5.35822949,9.82839994 4.40464984,10.7767514 C4.10998573,11.0721286 3.98479509,11.4989703 3.97047808,11.9084173 C3.96947922,12.4182189 3.97014513,12.9283551 3.97014513,13.4384912 C5.03326658,13.4371531 6.09605511,13.4294593 7.15917657,13.4274522 C8.86223522,13.4150751 10.5662927,13.4210964 12.2690184,13.4003564 C12.265356,11.3691783 12.2636912,9.3380002 12.2696843,7.30715659 C11.1223255,7.29377598 9.97396792,7.30481498 8.82627621,7.30180435 C8.26025477,7.32823107 7.65960611,7.49950302 7.26538882,7.93136253 M15.2216527,7.29979725 C14.9589521,7.3309072 14.729214,7.53563067 14.6649539,7.79320762 C14.6156768,8.00194529 14.6413142,8.23744422 14.772498,8.41206129 C14.90235,8.59504128 15.1284256,8.69606496 15.3505058,8.686364 C19.4465034,8.686364 23.5425009,8.68602948 27.6384985,8.686364 C27.7843323,8.68569497 27.9364922,8.69673399 28.074335,8.63752474 C28.4645569,8.49468663 28.60806,7.97685662 28.4046252,7.628626 C28.2910879,7.42825122 28.0683419,7.29477953 27.8382708,7.29511404 C25.3521048,7.29411049 22.8656059,7.29477953 20.3794399,7.29477953 C18.6603995,7.29812469 16.9406931,7.2877547 15.2216527,7.29979725 M15.1893562,11.5839373 C14.9379761,11.6270898 14.7235538,11.8288026 14.6636221,12.0776821 C14.6186734,12.2773879 14.6396494,12.5008442 14.7588469,12.6714472 C14.880375,12.8550962 15.0974609,12.969166 15.3172104,12.9634792 C19.4907862,12.9634792 23.6640291,12.9638137 27.8372719,12.9634792 C28.0393749,12.9631447 28.2378153,12.8617865 28.3583446,12.6992119 C28.5051773,12.5092071 28.5278181,12.2432673 28.4555671,12.0188074 C28.3643378,11.7478498 28.0863214,11.5598521 27.8023118,11.5722292 C23.6517098,11.5715602 19.5007748,11.5722292 15.3501728,11.5718947 C15.2962343,11.5725637 15.2422958,11.5749054 15.1893562,11.5839373 M8.7383764,19.3861768 C8.06647563,19.4768305 7.4838065,20.0130589 7.33431025,20.6770721 C7.20878666,21.1905534 7.34063637,21.7572227 7.67891742,22.162321 C7.96758836,22.5155693 8.40309191,22.7417018 8.85724092,22.7741498 C9.29008085,22.8086049 9.73390825,22.6681084 10.067528,22.3884534 C10.4527555,22.0709982 10.686822,21.5762498 10.6831595,21.0751456 C10.6871549,20.5817352 10.4620782,20.0930081 10.0865063,19.7755529 C9.7205901,19.4580977 9.21583215,19.313587 8.7383764,19.3861768 M22.9618295,19.3932016 C22.6172224,19.4520764 22.2932583,19.6226793 22.0475384,19.8722278 C21.7175812,20.2027291 21.5344566,20.674396 21.5560986,21.1423832 C21.5717474,21.6200713 21.8021515,22.0843788 22.1693995,22.3874499 C22.4936965,22.6597455 22.922541,22.8009111 23.3443934,22.7764914 C23.786889,22.7544134 24.2167324,22.5486864 24.5120624,22.2165125 C24.8300333,21.8666093 24.990517,21.3792202 24.9415728,20.9078878 C24.8989547,20.4184917 24.6272644,19.9598709 24.2280528,19.6782089 C23.8657991,19.4189593 23.3993308,19.3159286 22.9618295,19.3932016 L22.9618295,19.3932016 Z" id="形状"></path>
                </g>
            </g>
        </g>
    </g>
</svg>