<?xml version="1.0" encoding="UTF-8"?>
<svg width="46px" height="46px" viewBox="0 0 46 46" version="1.1" xmlns="http://www.w3.org/2000/svg" xmlns:xlink="http://www.w3.org/1999/xlink">
    <title>编组 7</title>
    <g id="页面-1" stroke="none" stroke-width="1" fill="none" fill-rule="evenodd">
        <g id="原生联首页备份" transform="translate(-1332.000000, -648.000000)">
            <g id="编组-7" transform="translate(1332.000000, 648.000000)">
                <circle id="椭圆形备份-3" stroke="#979797" cx="23" cy="23" r="22.5"></circle>
                <g id="编组备份" transform="translate(8.000000, 10.000000)" fill="#808080" fill-rule="nonzero">
                    <path d="M28.5714286,23.1111111 L28.5714286,6.85677779 C28.5714286,6.24570539 28.0815002,5.75033334 27.4771429,5.75033334 L18.2371429,5.75033334 C17.6327855,5.75033334 17.1428571,6.24570539 17.1428571,6.85677779 L17.1428571,23.1111111 L15.7142857,23.1111111 L15.7142857,1.10644445 C15.7142857,0.495372053 15.2243573,0 14.62,0 L2.52285715,0 C1.91849983,0 1.42857143,0.495372053 1.42857143,1.10644445 L1.42857143,23.1111111 L0,23.1111111 L0,26 L30,26 L30,23.1111111 L28.5714286,23.1111111 Z M20,10 L23,10 L23,13 L20,13 L20,10 Z M7,10 L4,10 L4,7 L7,7 L7,10 Z M7,6 L4,6 L4,3 L7,3 L7,6 Z" id="形状"></path>
                </g>
            </g>
        </g>
    </g>
</svg>